PathFileType	3	(X/Y/Z)	C:\Users\koon_\Desktop\
DataRate	CameraRate	NumFrames	NumMarkers	Units	OrigDataRate	OrigDataStartFrame	OrigNumFrames
100.0	100.0	8	27	mm	100.0	1257	5024	
Frame#	Time	get:LFHD			get:RFHD			get:LBHD			get:RBHD			get:C7			get:T10			get:CLAV			get:STRN			get:RBAK			get:LSHO			get:LUPA			get:LELB			get:LFRA			get:LWRA			get:LWRB			get:LFIN			get:RSHO			get:RUPA			get:RELB			get:RFRA			get:RWRA			get:RWRB			get:RFIN			get:LASI			get:RASI			get:LPSI			get:RPSI			
		X1	Y1	Z1	X2	Y2	Z2	X3	Y3	Z3	X4	Y4	Z4	X5	Y5	Z5	X6	Y6	Z6	X7	Y7	Z7	X8	Y8	Z8	X9	Y9	Z9	X10	Y10	Z10	X11	Y11	Z11	X12	Y12	Z12	X13	Y13	Z13	X14	Y14	Z14	X15	Y15	Z15	X16	Y16	Z16	X17	Y17	Z17	X18	Y18	Z18	X19	Y19	Z19	X20	Y20	Z20	X21	Y21	Z21	X22	Y22	Z22	X23	Y23	Z23	X24	Y24	Z24	X25	Y25	Z25	X26	Y26	Z26	X27	Y27	Z27	
1257	12.56	43.232449	1538.6354	-37.345078	-100.60316	1524.0731	-64.908134	66.583603	1542.2531	-173.04472	-82.190353	1521.9377	-197.25345	-17.271645	1329.0571	-226.41197	-17.860546	1112.9641	-249.91556	28.013813	1235.9888	-31.44562	29.910992	1082.9722	13.494622	-121.44685	1258.984	-223.52013	159.13281	1325.5756	-177.44788	212.79779	1114.0048	-120.78443	225.84917	994.18512	-174.37695	219.86745	943.10254	-88.889015	180.00146	771.54797	-57.396065	246.97472	772.59955	-91.816292	231.60577	698.90674	-60.307617	-115.05332	1332.8901	-95.821152	-164.29393	1264.3639	-14.308694	-171.63464	1087.7399	106.47856	-82.667313	1032.3857	234.19366	-60.59483	959.10693	300.24713	-134.36369	972.64838	301.93982	-80.795204	950.60828	369.49316	148.78769	891.97821	-59.939804	-143.97505	905.95563	-39.130062	43.002182	928.84247	-236.79788	-44.658573	927.74274	-234.36942
1258	12.57	42.925941	1538.1179	-36.885643	-100.84289	1524.0231	-64.934097	66.748245	1542.3472	-172.49107	-82.009476	1522.4464	-197.27299	-16.793581	1328.8943	-226.83734	-17.174589	1112.8157	-250.13921	27.275988	1236.1096	-31.654861	29.130171	1083.1786	13.529236	-121.03278	1258.517	-224.51569	159.20198	1325.7396	-176.81158	212.7226	1114.2961	-119.61161	226.53175	994.61505	-173.15999	219.68503	943.40997	-87.615532	178.96371	771.47546	-56.642265	246.91826	772.91913	-90.126831	231.35565	699.24353	-58.66539	-115.08987	1332.8613	-97.663971	-165.00905	1266.7665	-15.62347	-174.5318	1093.7043	109.35905	-87.418167	1042.4376	240.20984	-66.086411	971.53864	308.81128	-139.95018	984.36938	308.74225	-87.600845	964.92102	377.67038	148.63954	891.93646	-59.615475	-144.11522	906.04041	-39.779575	43.481682	928.935	-236.87724	-44.178089	927.86639	-234.75249
1259	12.58	42.600452	1537.6361	-36.459042	-101.09077	1523.9518	-65.071991	66.779221	1542.4268	-171.95937	-81.75016	1523.0171	-197.51788	-16.298471	1328.8601	-227.46857	-16.425499	1112.7223	-250.34067	26.489107	1236.2559	-31.853441	28.264345	1083.3408	13.482306	-120.52103	1258.2886	-225.81558	159.28534	1325.9274	-176.19815	212.69637	1114.6072	-118.3717	226.98871	994.89172	-171.83546	219.5435	943.70905	-86.227196	179.37851	772.14063	-54.64962	246.85936	773.2254	-88.411957	231.05432	699.59607	-56.888222	-115.09434	1332.9197	-99.349503	-165.96422	1269.2184	-17.106409	-177.65837	1099.8403	112.16592	-92.510277	1052.6268	245.84288	-72.047401	984.11371	316.93555	-145.9334	996.3595	315.23615	-94.968048	979.487	385.46539	148.51584	891.90057	-59.32272	-144.34203	906.14825	-40.510731	43.998299	929.03394	-236.95567	-43.71035	927.87518	-235.00012
1260	12.59	42.26376	1537.1667	-35.955509	-101.35416	1523.8524	-65.219887	66.958931	1542.5559	-171.40663	-81.573769	1523.4524	-197.37599	-15.807893	1328.7628	-227.97878	-15.708052	1112.641	-250.56999	25.800249	1236.3998	-32.037521	27.530113	1083.5331	13.503881	-120.08765	1258.0112	-226.98639	159.38692	1326.0679	-175.62732	212.54042	1114.8798	-117.22623	227.49626	995.12787	-170.44818	219.34898	944.04346	-84.854919	178.89206	772.44763	-53.512329	246.76578	773.5614	-86.54171	230.7766	699.96039	-55.040363	-115.13882	1333.0325	-100.94065	-167.20029	1271.6072	-18.592953	-181.10931	1106.1144	114.66763	-97.992165	1062.9507	250.92787	-78.506889	996.8913	324.53235	-152.44984	1008.6397	321.54044	-102.76174	994.29517	392.75476	148.40369	891.87115	-58.950764	-144.63522	906.21777	-41.266972	44.523277	929.1048	-236.99307	-43.202286	927.91962	-235.38086
1261	12.6	41.990875	1536.7217	-35.543659	-101.74423	1524.0123	-64.935364	67.124382	1542.6863	-170.90894	-81.382317	1523.9329	-197.43449	-15.324795	1328.6857	-228.4213	-15.042749	1112.6138	-250.85693	25.114847	1236.5228	-31.970091	26.721979	1083.6874	13.481571	-119.58801	1257.7041	-227.96516	159.49442	1326.1989	-175.02185	212.4167	1115.0994	-116.04753	227.94226	995.34894	-169.08025	219.26759	944.39258	-83.420715	178.13765	772.6416	-52.232758	246.72733	773.86096	-84.55027	230.48036	700.29596	-53.152805	-115.18024	1333.1671	-102.5377	-168.349	1273.9847	-20.093336	-184.82156	1112.4622	116.90612	-103.78925	1073.3462	255.71683	-85.310448	1009.7628	331.6557	-159.25081	1020.9854	327.20624	-111.0804	1009.2603	399.62415	148.237	891.85095	-58.629425	-144.82625	906.28497	-41.949951	45.038784	929.17377	-237.0442	-42.70192	927.95038	-235.6685
1262	12.61	41.662338	1536.2924	-35.169125	-101.99214	1523.9077	-65.177666	67.310257	1542.7764	-170.31755	-81.150551	1524.4022	-197.59032	-14.812377	1328.6227	-228.83691	-14.346438	1112.5648	-251.14491	24.460649	1236.7781	-32.100357	25.962614	1083.8464	13.413334	-119.0356	1257.5717	-229.17574	159.58679	1326.3107	-174.36815	212.29926	1115.3755	-114.90462	228.46371	995.56628	-167.62665	219.0697	944.65375	-82.014526	177.80026	773.013	-50.823528	246.62292	774.18579	-82.633339	230.12384	700.63422	-51.104271	-115.17336	1333.3108	-104.03648	-169.44478	1276.4207	-21.750179	-188.82536	1118.8242	118.86774	-109.93115	1083.7543	259.96335	-92.624115	1022.632	338.12799	-166.19366	1032.9106	331.72092	-119.68481	1024.0791	405.67599	148.0988	891.78546	-58.271851	-145.01125	906.36029	-42.62616	45.541897	929.19012	-237.07013	-42.193329	927.95416	-235.9969
1263	12.62	41.362152	1535.8859	-34.792671	-102.19583	1523.8108	-65.333435	67.436333	1542.8853	-169.82053	-80.921951	1524.7946	-197.69283	-14.307232	1328.5338	-229.25461	-13.67723	1112.5096	-251.38376	23.68692	1236.7119	-32.650124	25.176584	1083.9126	12.952548	-118.57378	1257.3207	-230.17522	159.69157	1326.4113	-173.79176	212.19507	1115.5935	-113.84666	228.72569	995.60895	-166.07941	218.92982	944.96161	-80.52578	177.53261	773.36066	-49.241108	246.61177	774.50433	-80.605385	229.84076	701.01617	-49.030514	-115.15131	1333.4838	-105.59859	-170.49272	1278.7997	-23.421188	-193.04129	1125.2766	120.65635	-116.30523	1094.1566	263.89676	-100.26336	1035.4576	344.03998	-173.7791	1045.1238	335.78513	-128.86201	1038.7572	411.22516	148.00247	891.76697	-57.93792	-145.17662	906.46161	-43.301601	46.078663	929.11694	-236.90497	-41.625893	927.96741	-236.27908
1264	12.63	41.082623	1535.4972	-34.359192	-102.37129	1523.7006	-65.465141	67.620544	1542.9878	-169.34637	-80.671013	1525.1583	-197.74242	-13.774736	1328.4938	-229.69092	-13.037984	1112.4481	-251.5885	22.989607	1236.8185	-32.888699	24.435656	1084.1655	12.838074	-118.04962	1257.1356	-231.08395	159.82219	1326.4919	-173.23796	212.0719	1115.7723	-112.68165	229.39627	995.95532	-164.76781	218.74872	945.24335	-79.078278	177.94914	774.00586	-47.281948	246.55399	774.78632	-78.582603	229.55103	701.39832	-46.934811	-115.09022	1333.6138	-107.03709	-171.42508	1281.2747	-25.117828	-197.44778	1131.6848	121.95985	-123.08792	1104.4877	267.31378	-108.31564	1048.1256	349.43094	-181.5582	1057.3176	339.53156	-138.19302	1053.3317	416.02551	147.87064	891.71326	-57.528454	-145.38518	906.48383	-43.963676	46.652718	929.13684	-236.91264	-41.110794	928.01385	-236.5674
